# xmcd CD database file
#
# Track frame offsets:
#	150
#	23600
#	47707
#	68297
#	90972
#	122947
#	143237
#	170980
#	196802
#
# Disc length: 3284 seconds
#
# Revision: 3
# Processed by: cddbd v1.5.2PL0 Copyright (c) Steve Scherf et al.
# Submitted via: jetAudio 7
#
DISCID=710cd209
DTITLE=Ray Anderson - Funkorific
DYEAR=1998
DGENRE=Contemporary Jazz
TTITLE0=Pheromonical
TTITLE1=Runnin' Round
TTITLE2=Mirror Mirror
TTITLE3=Damaged But Good
TTITLE4=Hammond Eggs
TTITLE5=Monkey Talk
TTITLE6=I'm Not A Spy
TTITLE7=Funkorific
TTITLE8=Willie and Muddy
EXTD=
EXTT0=
EXTT1=
EXTT2=
EXTT3=
EXTT4=
EXTT5=
EXTT6=
EXTT7=
EXTT8=
PLAYORDER=
